Coordinates
version=1
nRows=5
nColumns=40
inDegrees=yes

Units are S.I. units (second, meters, Newtons, ...)
If the header above contains a line with 'inDegrees', this indicates whether rotational values are in degrees (yes) or radians (no).

endheader
time	pelvis_tilt	pelvis_list	pelvis_rotation	pelvis_tx	pelvis_ty	pelvis_tz	hip_flexion_r	hip_adduction_r	hip_rotation_r	knee_angle_r	knee_angle_r_beta	ankle_angle_r	subtalar_angle_r	mtp_angle_r	hip_flexion_l	hip_adduction_l	hip_rotation_l	knee_angle_l	knee_angle_l_beta	ankle_angle_l	subtalar_angle_l	mtp_angle_l	lumbar_extension	lumbar_bending	lumbar_rotation	arm_flex_r	arm_add_r	arm_rot_r	elbow_flex_r	pro_sup_r	wrist_flex_r	wrist_dev_r	arm_flex_l	arm_add_l	arm_rot_l	elbow_flex_l	pro_sup_l	wrist_flex_l	wrist_dev_l
      4.92500000	    -17.11492096	      5.59933596	      1.79224354	     -0.43797740	      0.79824296	     -0.73928892	     63.71137533	     -4.53910825	     -4.88119105	     75.25088196	      1.31337566	     16.07843858	      0.00000000	      0.00000000	     80.37883058	     -0.90833435	    -11.84391264	     38.32311770	      0.66886458	    -22.48662327	      0.00000000	      0.00000000	     -9.72678682	     -1.06247129	     -5.17795267	     89.96758776	     -1.44230359	     12.63390604	     50.72216218	     63.22205427	      0.00000000	      0.00000000	     89.95388944	     -8.22321563	      8.46357286	     46.70947059	     80.28989303	      0.00000000	      0.00000000
      4.93000000	    -17.06000730	      5.58399522	      1.76229413	     -0.43773104	      0.79943869	     -0.73926989	     63.50302192	     -4.47834725	     -4.84666578	     75.02814935	      1.30948824	     15.93907046	      0.00000000	      0.00000000	     80.28663749	     -0.93722950	    -11.87428955	     38.41746462	      0.67051125	    -22.24376080	      0.00000000	      0.00000000	     -9.73469518	     -1.05160979	     -5.15858223	     89.96754337	     -1.47105225	     12.67450384	     50.70234727	     63.29881673	      0.00000000	      0.00000000	     89.95380930	     -8.25246459	      8.51379869	     46.66558249	     80.30041202	      0.00000000	      0.00000000
      4.93500000	    -17.05745145	      5.61057118	      1.76132154	     -0.43762338	      0.80047446	     -0.73926875	     63.39693229	     -4.47488011	     -4.83852607	     74.84802826	      1.30634453	     15.86326885	      0.00000000	      0.00000000	     80.25249911	     -0.91848305	    -11.87632054	     38.46780692	      0.67138989	    -22.16398615	      0.00000000	      0.00000000	     -9.68880472	     -1.09452830	     -5.15699169	     89.96751453	     -1.53239551	     12.66116908	     50.68283993	     63.32836311	      0.00000000	      0.00000000	     89.95379692	     -8.29008078	      8.49850544	     46.66580159	     80.29543521	      0.00000000	      0.00000000
      4.94000000	    -17.04663170	      5.61512984	      1.78849477	     -0.43736596	      0.80157709	     -0.73935845	     63.23251569	     -4.47323452	     -4.80623532	     74.61935316	      1.30235340	     15.77085217	      0.00000000	      0.00000000	     80.20708754	     -0.87929592	    -11.90959853	     38.54006953	      0.67265111	    -22.06203853	      0.00000000	      0.00000000	     -9.64606058	     -1.09805560	     -5.19210438	     89.96738481	     -1.53941336	     12.66353636	     50.65810309	     63.37270583	      0.00000000	      0.00000000	     89.95368909	     -8.28696522	      8.52025451	     46.61258564	     80.29388756	      0.00000000	      0.00000000
      4.94500000	    -17.01574258	      5.64448341	      1.80024588	     -0.43737133	      0.80284267	     -0.73937667	     63.06194742	     -4.49584229	     -4.79468279	     74.34571934	      1.29757759	     15.65383037	      0.00000000	      0.00000000	     80.13450932	     -0.84417454	    -11.91460025	     38.58805166	      0.67348855	    -21.98294116	      0.00000000	      0.00000000	     -9.64663440	     -1.14506332	     -5.23473172	     89.96738437	     -1.56132180	     12.65496224	     50.63946081	     63.40965808	      0.00000000	      0.00000000	     89.95371817	     -8.30721411	      8.52514724	     46.58669718	     80.28946827	      0.00000000	      0.00000000
